<svg width="3254" height="1925" xmlns="http://www.w3.org/2000/svg" xmlns:xlink="http://www.w3.org/1999/xlink" xml:space="preserve" overflow="hidden"><g transform="translate(-119 -151)"><g><path d="M955 158.5C927.662 158.5 905.5 180.662 905.5 208L905.5 406C905.5 433.338 927.662 455.5 955 455.5L1318 455.5C1345.34 455.5 1367.5 433.338 1367.5 406L1367.5 208C1367.5 180.662 1345.34 158.5 1318 158.5Z" stroke="#808080" stroke-width="6.88583" stroke-linecap="butt" stroke-linejoin="round" stroke-miterlimit="10" stroke-dasharray="13.5651 8.745" stroke-opacity="1" fill="#F4F4F4" fill-rule="evenodd" fill-opacity="1"/><path d="M2339.77 268.986 2339.77 2042.09 2335.23 2042.09 2335.23 268.986ZM2319.49 295.356 2337.5 264.489 2355.51 295.356C2356.14 296.441 2355.77 297.833 2354.69 298.466 2353.6 299.098 2352.21 298.732 2351.58 297.647L2335.54 270.147 2339.46 270.147 2323.42 297.647C2322.79 298.732 2321.4 299.098 2320.31 298.466 2319.23 297.833 2318.86 296.441 2319.49 295.356ZM2355.51 2015.64 2337.5 2046.51 2319.49 2015.64C2318.86 2014.56 2319.23 2013.17 2320.31 2012.53 2321.4 2011.9 2322.79 2012.27 2323.42 2013.35L2339.46 2040.85 2335.54 2040.85 2351.58 2013.35C2352.21 2012.27 2353.6 2011.9 2354.69 2012.53 2355.77 2013.17 2356.14 2014.56 2355.51 2015.64Z" fill="#333333" fill-rule="nonzero" fill-opacity="1"/><path d="M382 684.5C354.662 684.5 332.5 706.662 332.5 734L332.5 932C332.5 959.338 354.662 981.5 382 981.5L745 981.5C772.338 981.5 794.5 959.338 794.5 932L794.5 734C794.5 706.662 772.338 684.5 745 684.5Z" stroke="#3465A4" stroke-width="6.88583" stroke-linecap="butt" stroke-linejoin="round" stroke-miterlimit="10" stroke-opacity="1" fill="#E1EEFD" fill-rule="evenodd" fill-opacity="1"/><text fill="#000000" fill-opacity="1" font-family="Arial,Arial_MSFontService,sans-serif" font-style="normal" font-variant="normal" font-weight="700" font-stretch="normal" font-size="78" text-anchor="start" direction="ltr" writing-mode="lr-tb" unicode-bidi="normal" text-decoration="none" transform="matrix(1 0 0 1 410.551 860)">project1</text><path d="M0 0 172 245" stroke="#3465A4" stroke-width="6.88583" stroke-linecap="butt" stroke-linejoin="round" stroke-miterlimit="10" stroke-opacity="1" fill="none" fill-rule="evenodd" transform="matrix(-1 0 0 1 471.5 981.5)"/><path d="M596.5 981.5 596.5 1226.5" stroke="#3465A4" stroke-width="6.88583" stroke-linecap="butt" stroke-linejoin="round" stroke-miterlimit="10" stroke-opacity="1" fill="none" fill-rule="evenodd"/><path d="M715.5 981.5 886.5 1226.5" stroke="#3465A4" stroke-width="6.88583" stroke-linecap="butt" stroke-linejoin="round" stroke-miterlimit="10" stroke-opacity="1" fill="none" fill-rule="evenodd"/><path d="M0 0 363 231" stroke="#808080" stroke-width="6.88583" stroke-linecap="butt" stroke-linejoin="round" stroke-miterlimit="10" stroke-dasharray="13.5651 8.745" stroke-opacity="1" fill="none" fill-rule="evenodd" transform="matrix(-1 0 0 1 932.5 454.5)"/><text fill="#808080" fill-opacity="1" font-family="Arial,Arial_MSFontService,sans-serif" font-style="italic" font-variant="normal" font-weight="700" font-stretch="normal" font-size="78" text-anchor="start" direction="ltr" writing-mode="lr-tb" unicode-bidi="normal" text-decoration="none" transform="matrix(1 0 0 1 1014.64 281)">Home/</text><text fill="#C9211E" fill-opacity="1" font-family="Arial,Arial_MSFontService,sans-serif" font-style="italic" font-variant="normal" font-weight="700" font-stretch="normal" font-size="78" text-anchor="start" direction="ltr" writing-mode="lr-tb" unicode-bidi="normal" text-decoration="none" transform="matrix(1 0 0 1 960.465 371)">OneDrive</text><text fill="#333333" fill-opacity="1" font-family="Calibri,Calibri_MSFontService,sans-serif" font-style="normal" font-variant="normal" font-weight="700" font-stretch="normal" font-size="83" text-anchor="start" direction="ltr" writing-mode="lr-tb" unicode-bidi="normal" text-decoration="none" transform="matrix(1 0 0 1 2376.52 512)">~/</text><text fill="#C9211E" fill-opacity="1" font-family="Calibri,Calibri_MSFontService,sans-serif" font-style="normal" font-variant="normal" font-weight="700" font-stretch="normal" font-size="83" text-anchor="start" direction="ltr" writing-mode="lr-tb" unicode-bidi="normal" text-decoration="none" transform="matrix(1 0 0 1 2453.06 512)">OneDrive/</text><text fill="#333333" fill-opacity="1" font-family="Calibri,Calibri_MSFontService,sans-serif" font-style="normal" font-variant="normal" font-weight="700" font-stretch="normal" font-size="83" text-anchor="start" direction="ltr" writing-mode="lr-tb" unicode-bidi="normal" text-decoration="none" transform="matrix(1 0 0 1 2811.5 512)">project2/</text><text fill="#333333" fill-opacity="1" font-family="Calibri,Calibri_MSFontService,sans-serif" font-style="normal" font-variant="normal" font-weight="700" font-stretch="normal" font-size="83" text-anchor="start" direction="ltr" writing-mode="lr-tb" unicode-bidi="normal" text-decoration="none" transform="matrix(1 0 0 1 2376.52 612)">data/seqs/S1.fastq.gz</text><path d="M1281.67 1564.5C1261.69 1564.5 1245.5 1580.69 1245.5 1600.67L1245.5 1745.33C1245.5 1765.31 1261.69 1781.5 1281.67 1781.5L1514.33 1781.5C1534.31 1781.5 1550.5 1765.31 1550.5 1745.33L1550.5 1600.67C1550.5 1580.69 1534.31 1564.5 1514.33 1564.5Z" stroke="#069A2E" stroke-width="6.88583" stroke-linecap="butt" stroke-linejoin="round" stroke-miterlimit="10" stroke-opacity="1" fill="#EEFADC" fill-rule="evenodd" fill-opacity="1"/><path d="M1385.5 1781.5 1385.5 1902.5" stroke="#069A2E" stroke-width="6.88583" stroke-linecap="butt" stroke-linejoin="round" stroke-miterlimit="10" stroke-opacity="1" fill="none" fill-rule="evenodd"/><text fill="#000000" fill-opacity="1" font-family="Arial,Arial_MSFontService,sans-serif" font-style="italic" font-variant="normal" font-weight="700" font-stretch="normal" font-size="78" text-anchor="start" direction="ltr" writing-mode="lr-tb" unicode-bidi="normal" text-decoration="none" transform="matrix(1 0 0 1 1201.9 1996)">S1.fastq.gz</text><path d="M1336.5 452.5 1699.5 683.5" stroke="#808080" stroke-width="6.88583" stroke-linecap="butt" stroke-linejoin="round" stroke-miterlimit="10" stroke-dasharray="13.5651 8.745" stroke-opacity="1" fill="none" fill-rule="evenodd"/><path d="M1385.5 1443.5 1385.5 1564.5" stroke="#069A2E" stroke-width="6.88583" stroke-linecap="butt" stroke-linejoin="round" stroke-miterlimit="10" stroke-opacity="1" fill="none" fill-rule="evenodd"/><path d="M1500 685.5C1472.66 685.5 1450.5 707.662 1450.5 735L1450.5 933C1450.5 960.338 1472.66 982.5 1500 982.5L1863 982.5C1890.34 982.5 1912.5 960.338 1912.5 933L1912.5 735C1912.5 707.662 1890.34 685.5 1863 685.5Z" stroke="#069A2E" stroke-width="6.88583" stroke-linecap="butt" stroke-linejoin="round" stroke-miterlimit="10" stroke-opacity="1" fill="#EEFADC" fill-rule="evenodd" fill-opacity="1"/><text fill="#000000" fill-opacity="1" font-family="Arial,Arial_MSFontService,sans-serif" font-style="normal" font-variant="normal" font-weight="700" font-stretch="normal" font-size="78" text-anchor="start" direction="ltr" writing-mode="lr-tb" unicode-bidi="normal" text-decoration="none" transform="matrix(1 0 0 1 1528 860)">project2</text><path d="M0 0 171 244" stroke="#069A2E" stroke-width="6.88583" stroke-linecap="butt" stroke-linejoin="round" stroke-miterlimit="10" stroke-opacity="1" fill="none" fill-rule="evenodd" transform="matrix(-1 0 0 1 1586.5 982.5)"/><path d="M1712.5 982.5 1712.5 1226.5" stroke="#069A2E" stroke-width="6.88583" stroke-linecap="butt" stroke-linejoin="round" stroke-miterlimit="10" stroke-opacity="1" fill="none" fill-rule="evenodd"/><path d="M1830.5 982.5 2002.5 1226.5" stroke="#069A2E" stroke-width="6.88583" stroke-linecap="butt" stroke-linejoin="round" stroke-miterlimit="10" stroke-opacity="1" fill="none" fill-rule="evenodd"/><text fill="#333333" fill-opacity="1" font-family="Calibri,Calibri_MSFontService,sans-serif" font-style="normal" font-variant="normal" font-weight="700" font-stretch="normal" font-size="83" text-anchor="start" direction="ltr" writing-mode="lr-tb" unicode-bidi="normal" text-decoration="none" transform="matrix(1 0 0 1 2600.5 1154)">data/seqs/</text><text fill="#333333" fill-opacity="1" font-family="Calibri,Calibri_MSFontService,sans-serif" font-style="normal" font-variant="normal" font-weight="700" font-stretch="normal" font-size="83" text-anchor="start" direction="ltr" writing-mode="lr-tb" unicode-bidi="normal" text-decoration="none" transform="matrix(1 0 0 1 2600.5 1254)">S1.fastq.gz</text><text fill="#808080" fill-opacity="1" font-family="Arial,Arial_MSFontService,sans-serif" font-style="italic" font-variant="normal" font-weight="400" font-stretch="normal" font-size="78" text-anchor="start" direction="ltr" writing-mode="lr-tb" unicode-bidi="normal" text-decoration="none" transform="matrix(1 0 0 1 2606.48 1026)">Relative path:</text><path d="M2.29616 4.45383 8.25113 1182.51 3.70394 1182.53-2.25102 4.47681ZM-17.8494 30.9468-5.31906e-05-0.0105371 18.1613 30.7647C18.7995 31.8462 18.4402 33.2402 17.3588 33.8784 16.2773 34.5165 14.8833 34.1572 14.2451 33.0758L-1.93533 5.65724 1.99243 5.63738-13.91 33.2181C-14.5372 34.3059-15.9275 34.6793-17.0154 34.0521-18.1032 33.4249-18.4766 32.0346-17.8494 30.9468ZM23.8496 1156.05 6.00025 1187.01-12.1611 1156.24C-12.7993 1155.15-12.44 1153.76-11.3586 1153.12-10.2771 1152.48-8.88312 1152.84-8.24494 1153.92L-8.24494 1153.92 7.93553 1181.34 4.00777 1181.36 19.9102 1153.78C20.5374 1152.69 21.9277 1152.32 23.0156 1152.95 24.1034 1153.58 24.4768 1154.97 23.8496 1156.05Z" fill="#333333" fill-rule="nonzero" fill-opacity="1" transform="matrix(-1 0 0 1 2539.5 858.5)"/><text fill="#000000" fill-opacity="1" font-family="Arial,Arial_MSFontService,sans-serif" font-style="normal" font-variant="normal" font-weight="700" font-stretch="normal" font-size="78" text-anchor="start" direction="ltr" writing-mode="lr-tb" unicode-bidi="normal" text-decoration="none" transform="matrix(1 0 0 1 1306.63 1699)">seqs</text><path d="M162.667 1226.5C142.692 1226.5 126.5 1242.69 126.5 1262.67L126.5 1407.33C126.5 1427.31 142.692 1443.5 162.667 1443.5L395.333 1443.5C415.308 1443.5 431.5 1427.31 431.5 1407.33L431.5 1262.67C431.5 1242.69 415.307 1226.5 395.333 1226.5Z" stroke="#3465A4" stroke-width="6.88583" stroke-linecap="butt" stroke-linejoin="round" stroke-miterlimit="10" stroke-opacity="1" fill="#E1EEFD" fill-rule="evenodd" fill-opacity="1"/><path d="M507.667 1226.5C487.693 1226.5 471.5 1242.69 471.5 1262.67L471.5 1407.33C471.5 1427.31 487.693 1443.5 507.667 1443.5L740.334 1443.5C760.308 1443.5 776.5 1427.31 776.5 1407.33L776.5 1262.67C776.5 1242.69 760.308 1226.5 740.333 1226.5Z" stroke="#3465A4" stroke-width="6.88583" stroke-linecap="butt" stroke-linejoin="round" stroke-miterlimit="10" stroke-opacity="1" fill="#E1EEFD" fill-rule="evenodd" fill-opacity="1"/><path d="M851.833 1226.5C831.767 1226.5 815.5 1242.77 815.5 1262.83L815.5 1408.17C815.5 1428.23 831.767 1444.5 851.833 1444.5L1084.17 1444.5C1104.23 1444.5 1120.5 1428.23 1120.5 1408.17L1120.5 1262.83C1120.5 1242.77 1104.23 1226.5 1084.17 1226.5Z" stroke="#3465A4" stroke-width="6.88583" stroke-linecap="butt" stroke-linejoin="round" stroke-miterlimit="10" stroke-opacity="1" fill="#E1EEFD" fill-rule="evenodd" fill-opacity="1"/><text fill="#000000" fill-opacity="1" font-family="Arial,Arial_MSFontService,sans-serif" font-style="normal" font-variant="normal" font-weight="700" font-stretch="normal" font-size="78" text-anchor="start" direction="ltr" writing-mode="lr-tb" unicode-bidi="normal" text-decoration="none" transform="matrix(1 0 0 1 185.426 1368)">data</text><text fill="#000000" fill-opacity="1" font-family="Arial,Arial_MSFontService,sans-serif" font-style="normal" font-variant="normal" font-weight="700" font-stretch="normal" font-size="78" text-anchor="start" direction="ltr" writing-mode="lr-tb" unicode-bidi="normal" text-decoration="none" transform="matrix(1 0 0 1 840.37 1360)">scripts</text><path d="M1278.67 1228.5C1258.69 1228.5 1242.5 1244.69 1242.5 1264.67L1242.5 1409.33C1242.5 1429.31 1258.69 1445.5 1278.67 1445.5L1511.33 1445.5C1531.31 1445.5 1547.5 1429.31 1547.5 1409.33L1547.5 1264.67C1547.5 1244.69 1531.31 1228.5 1511.33 1228.5Z" stroke="#069A2E" stroke-width="6.88583" stroke-linecap="butt" stroke-linejoin="round" stroke-miterlimit="10" stroke-opacity="1" fill="#EEFADC" fill-rule="evenodd" fill-opacity="1"/><text fill="#000000" fill-opacity="1" font-family="Arial,Arial_MSFontService,sans-serif" font-style="normal" font-variant="normal" font-weight="700" font-stretch="normal" font-size="78" text-anchor="start" direction="ltr" writing-mode="lr-tb" unicode-bidi="normal" text-decoration="none" transform="matrix(1 0 0 1 1300.12 1364)">data</text><path d="M1622.67 1228.5C1602.69 1228.5 1586.5 1244.69 1586.5 1264.67L1586.5 1409.33C1586.5 1429.31 1602.69 1445.5 1622.67 1445.5L1855.33 1445.5C1875.31 1445.5 1891.5 1429.31 1891.5 1409.33L1891.5 1264.67C1891.5 1244.69 1875.31 1228.5 1855.33 1228.5Z" stroke="#069A2E" stroke-width="6.88583" stroke-linecap="butt" stroke-linejoin="round" stroke-miterlimit="10" stroke-opacity="1" fill="#EEFADC" fill-rule="evenodd" fill-opacity="1"/><path d="M1967.83 1228.5C1947.77 1228.5 1931.5 1244.77 1931.5 1264.83L1931.5 1410.17C1931.5 1430.23 1947.77 1446.5 1967.83 1446.5L2200.17 1446.5C2220.23 1446.5 2236.5 1430.23 2236.5 1410.17L2236.5 1264.83C2236.5 1244.77 2220.23 1228.5 2200.17 1228.5Z" stroke="#069A2E" stroke-width="6.88583" stroke-linecap="butt" stroke-linejoin="round" stroke-miterlimit="10" stroke-opacity="1" fill="#EEFADC" fill-rule="evenodd" fill-opacity="1"/><text fill="#000000" fill-opacity="1" font-family="Arial,Arial_MSFontService,sans-serif" font-style="normal" font-variant="normal" font-weight="700" font-stretch="normal" font-size="78" text-anchor="start" direction="ltr" writing-mode="lr-tb" unicode-bidi="normal" text-decoration="none" transform="matrix(1 0 0 1 1616.22 1364)">results</text><text fill="#000000" fill-opacity="1" font-family="Arial,Arial_MSFontService,sans-serif" font-style="normal" font-variant="normal" font-weight="700" font-stretch="normal" font-size="78" text-anchor="start" direction="ltr" writing-mode="lr-tb" unicode-bidi="normal" text-decoration="none" transform="matrix(1 0 0 1 1949.62 1360)">scripts</text><text fill="#000000" fill-opacity="1" font-family="Arial,Arial_MSFontService,sans-serif" font-style="normal" font-variant="normal" font-weight="700" font-stretch="normal" font-size="78" text-anchor="start" direction="ltr" writing-mode="lr-tb" unicode-bidi="normal" text-decoration="none" transform="matrix(1 0 0 1 496.02 1363)">results</text><text fill="#808080" fill-opacity="1" font-family="Arial,Arial_MSFontService,sans-serif" font-style="italic" font-variant="normal" font-weight="400" font-stretch="normal" font-size="78" text-anchor="start" direction="ltr" writing-mode="lr-tb" unicode-bidi="normal" text-decoration="none" transform="matrix(1 0 0 1 2376.52 406)">Absolute path (Home as ~):</text></g></g></svg>